<svg width="24" height="24" viewBox="0 0 24 24" fill="none" xmlns="http://www.w3.org/2000/svg">
<path d="M12 24C18.6274 24 24 18.6274 24 12C24 5.37258 18.6274 0 12 0C5.37258 0 0 5.37258 0 12C0 18.6274 5.37258 24 12 24Z" fill="url(#paint0_linear)"/>
<path fill-rule="evenodd" clip-rule="evenodd" d="M5.43104 11.8733C8.92928 10.3492 11.262 9.3444 12.4292 8.85893C15.7617 7.47282 16.4542 7.23203 16.9055 7.22408C17.0048 7.22234 17.2267 7.24694 17.3705 7.3636C17.4919 7.46211 17.5253 7.59518 17.5413 7.68857C17.5573 7.78197 17.5772 7.99473 17.5614 8.16097C17.3808 10.0585 16.5994 14.6631 16.2018 16.7884C16.0336 17.6876 15.7024 17.9891 15.3817 18.0186C14.6849 18.0828 14.1557 17.5581 13.4808 17.1157C12.4246 16.4233 11.8279 15.9924 10.8028 15.3168C9.61798 14.536 10.386 14.1069 11.0612 13.4056C11.2379 13.2221 14.3083 10.4294 14.3677 10.176C14.3752 10.1443 14.3821 10.0262 14.3119 9.96385C14.2417 9.90148 14.1382 9.92281 14.0635 9.93977C13.9575 9.96381 12.2703 11.079 9.00179 13.2853C8.52287 13.6142 8.08909 13.7744 7.70043 13.766C7.27197 13.7568 6.44778 13.5238 5.83508 13.3246C5.08358 13.0803 4.4863 12.9512 4.53831 12.5363C4.5654 12.3202 4.86298 12.0992 5.43104 11.8733Z" fill="white"/>
<defs>
<linearGradient id="paint0_linear" x1="12" y1="0" x2="12" y2="23.822" gradientUnits="userSpaceOnUse">
<stop stop-color="#2AABEE"/>
<stop offset="1" stop-color="#229ED9"/>
</linearGradient>
</defs>
</svg>
