<svg width="24" height="24" viewBox="0 0 24 24" fill="none" xmlns="http://www.w3.org/2000/svg">
<path d="M7.54752 21.7507C16.6042 21.7507 21.5578 14.2474 21.5578 7.74049C21.5578 7.52737 21.5578 7.31521 21.5434 7.10401C22.507 6.40696 23.3389 5.54389 24 4.55521C23.1014 4.95361 22.148 5.21476 21.1718 5.32993C22.1998 4.71462 22.9692 3.74671 23.3366 2.60641C22.3701 3.18002 21.3126 3.58424 20.2099 3.80161C19.4675 3.01219 18.4856 2.48945 17.4162 2.31429C16.3468 2.13914 15.2494 2.32132 14.294 2.83266C13.3385 3.344 12.5782 4.15598 12.1307 5.14296C11.6833 6.12993 11.5735 7.23687 11.8186 8.29249C9.8609 8.19429 7.94576 7.68552 6.19745 6.79921C4.44915 5.91291 2.90676 4.66887 1.6704 3.14785C1.04073 4.23185 0.847872 5.51508 1.1311 6.73627C1.41433 7.95747 2.15234 9.0248 3.19488 9.72097C2.41123 9.69801 1.64465 9.4866 0.96 9.10465V9.16705C0.960311 10.3039 1.35385 11.4056 2.07387 12.2854C2.79389 13.1652 3.79606 13.7688 4.9104 13.9939C4.18548 14.1917 3.42487 14.2206 2.68704 14.0784C3.00181 15.0567 3.61443 15.9122 4.43924 16.5253C5.26405 17.1384 6.25983 17.4785 7.28736 17.4979C6.26644 18.3004 5.09731 18.8937 3.84687 19.2439C2.59643 19.5941 1.28921 19.6944 0 19.5389C2.25183 20.9839 4.87192 21.7504 7.54752 21.7469" fill="#1DA1F2"/>
</svg>
