<svg width="24" height="24" viewBox="0 0 24 24" fill="none" xmlns="http://www.w3.org/2000/svg">
<path fill-rule="evenodd" clip-rule="evenodd" d="M9.05677 11.075V8.78201C9.05677 8.06601 8.75577 7.81701 8.58677 7.59801C8.34777 7.29101 8.21577 6.99001 8.21577 6.61901C8.21577 6.60901 8.21577 6.60001 8.21577 6.59001C8.23877 5.89601 8.81477 5.33801 9.50977 5.33801C9.54077 5.33801 9.57177 5.33901 9.60277 5.34101H13.1618C13.6438 5.34101 13.9418 5.47801 14.1478 5.65501C14.4078 5.87701 14.6108 6.25901 14.6108 6.99701V10.183C15.4948 9.06101 16.2528 7.84501 16.8708 6.55601C17.1418 5.85701 17.8428 5.41101 18.5918 5.46201H20.8108C21.3748 5.46201 21.7498 5.68101 21.9838 5.96801C22.2168 6.25601 22.3508 6.66601 22.2398 7.22001C22.1498 7.63701 21.8338 8.31801 21.4118 9.05601C20.6298 10.423 19.5018 12.042 19.2818 12.355C19.5648 12.683 20.2248 13.282 20.6558 13.85C21.5078 14.755 22.1408 15.569 22.4528 16.183C22.6548 16.583 22.7398 16.935 22.7398 17.221C22.7358 17.77 22.5258 18.102 22.2878 18.317C22.0308 18.548 21.6958 18.662 21.3388 18.662H18.8108C18.2298 18.662 17.8508 18.499 17.4358 18.133C17.0788 17.817 16.6718 17.248 15.7418 16.36C15.2418 15.866 14.9138 15.587 14.6818 15.435V16.972C14.6818 17.352 14.5878 17.656 14.4138 17.906C14.2478 18.145 14.0018 18.351 13.6098 18.486C13.2908 18.595 12.8158 18.661 12.1168 18.661C9.68177 18.661 6.95677 17.208 4.90377 14.435C1.94577 10.445 1.25977 7.43501 1.25977 6.79101V6.81401C1.25977 6.80201 1.25977 6.79001 1.25977 6.77701C1.25977 5.98901 1.90777 5.34101 2.69577 5.34101L2.72577 5.34201H4.97877C5.52577 5.34201 5.89077 5.47001 6.17977 5.69501C6.44477 5.90101 6.66877 6.21701 6.84277 6.74001C7.42677 8.45301 8.28077 10.045 9.03177 11.043L9.05677 11.075ZM3.10577 7.14201C3.29977 8.08501 4.14377 10.388 6.34977 13.363C8.00677 15.601 10.1518 16.861 12.1168 16.861C12.4108 16.861 12.7058 16.827 12.8818 16.802V15.049C12.8818 14.422 13.1038 14.036 13.3508 13.807C13.5928 13.582 13.8938 13.463 14.2448 13.463C14.6368 13.463 15.3918 13.485 16.9958 15.068C17.6218 15.667 18.0158 16.125 18.3168 16.46C18.4248 16.581 18.5178 16.683 18.6058 16.764C18.6708 16.824 18.7218 16.862 18.8108 16.862H20.7748L20.7378 16.803C20.4418 16.314 19.9418 15.715 19.3148 15.051C19.2898 15.025 19.2668 14.997 19.2448 14.968C18.8098 14.379 18.1008 13.749 17.8328 13.426C17.5378 13.107 17.4308 12.822 17.3988 12.564C17.3568 12.218 17.4618 11.86 17.7498 11.407C17.7578 11.394 17.7668 11.381 17.7758 11.369C17.7758 11.369 19.0178 9.61701 19.8488 8.16301C20.0388 7.83101 20.2108 7.52001 20.3288 7.26201H18.5578L18.5278 7.26101L18.5108 7.29901C17.7568 8.87901 16.8098 10.361 15.6918 11.709C15.6828 11.719 15.6748 11.729 15.6658 11.739C14.8998 12.586 14.4408 12.721 14.0208 12.721C13.7328 12.721 13.4958 12.631 13.2968 12.471C13.0688 12.288 12.8108 11.916 12.8108 11.169V7.14101H10.4748C10.6838 7.51001 10.8568 8.01201 10.8568 8.78201V11.855C10.8568 12.27 10.8278 12.561 10.7718 12.754C10.6598 13.133 10.4488 13.35 10.1878 13.484C10.0358 13.563 9.85477 13.614 9.63077 13.614C9.25077 13.614 8.63777 13.34 8.02777 12.658C7.10277 11.624 5.90577 9.57001 5.13677 7.31501C5.11877 7.26001 5.09077 7.19401 5.06877 7.14601C5.03977 7.14401 5.00577 7.14201 4.97877 7.14201H3.10577ZM2.69577 7.14101H2.67477H2.69577Z" fill="#8C8C8C"/>
</svg>
