<svg width="32" height="32" viewBox="0 0 32 32" fill="none" xmlns="http://www.w3.org/2000/svg">
<path d="M25.0399 3.29857C24.7827 2.54 24.0627 2 23.2141 2H9.07129C8.22272 2 7.51557 2.54 7.24557 3.29857L4.57129 11V21.2857C4.57129 21.9929 5.14986 22.5714 5.857 22.5714H7.14272C7.84986 22.5714 8.42843 21.9929 8.42843 21.2857V20H23.857V21.2857C23.857 21.9929 24.4356 22.5714 25.1427 22.5714H26.4284C27.1356 22.5714 27.7141 21.9929 27.7141 21.2857V11L25.0399 3.29857ZM9.07129 16.1429C8.00415 16.1429 7.14272 15.2814 7.14272 14.2143C7.14272 13.1471 8.00415 12.2857 9.07129 12.2857C10.1384 12.2857 10.9999 13.1471 10.9999 14.2143C10.9999 15.2814 10.1384 16.1429 9.07129 16.1429ZM23.2141 16.1429C22.147 16.1429 21.2856 15.2814 21.2856 14.2143C21.2856 13.1471 22.147 12.2857 23.2141 12.2857C24.2813 12.2857 25.1427 13.1471 25.1427 14.2143C25.1427 15.2814 24.2813 16.1429 23.2141 16.1429ZM7.14272 9.71429L9.07129 3.92857H23.2141L25.1427 9.71429H7.14272Z" fill="white"/>
<path d="M9.71387 26.4286H14.8567V23.8572L22.571 27.7143H17.4282V30.2857L9.71387 26.4286Z" fill="white"/>
</svg>
