<svg width="366" height="166" viewBox="0 0 366 166" fill="none" xmlns="http://www.w3.org/2000/svg">
<rect x="183" width="183" height="166" rx="3" fill="#072832"/>
<rect x="198" y="9" width="153" height="57" rx="3" fill="#C4C4C4"/>
<rect x="198" y="73" width="45" height="38" rx="3" fill="#C4C4C4"/>
<rect x="198" y="118" width="45" height="38" rx="3" fill="#C4C4C4"/>
<rect x="253" y="73" width="45" height="38" rx="3" fill="#C4C4C4"/>
<rect x="253" y="118" width="45" height="38" rx="3" fill="#C4C4C4"/>
<rect x="307" y="73" width="44" height="83" rx="3" fill="#C4C4C4"/>
<rect width="183" height="166" rx="3" fill="white"/>
<rect x="12" y="9" width="153" height="57" rx="3" fill="#C4C4C4"/>
<rect x="12" y="73" width="45" height="38" rx="3" fill="#072832"/>
<rect x="12" y="118" width="45" height="38" rx="3" fill="#072832"/>
<rect x="67" y="73" width="45" height="38" rx="3" fill="#072832"/>
<rect x="67" y="118" width="45" height="38" rx="3" fill="#072832"/>
<rect x="121" y="73" width="44" height="83" rx="3" fill="#072832"/>
</svg>
