<svg width="75" height="50" viewBox="0 0 75 50" fill="none" xmlns="http://www.w3.org/2000/svg">
<g clip-path="url(#clip0)">
<path d="M0 6.20942C0 2.78005 2.79822 0 6.25 0H68.75C72.2018 0 75 2.78005 75 6.20942V43.4659C75 46.8953 72.2018 49.6753 68.75 49.6753H6.25C2.79822 49.6753 0 46.8953 0 43.4659V6.20942Z" fill="#E6E6E6"/>
<path d="M58.1413 39.0086C61.0219 39.0086 62.3777 37.9166 63.5619 34.6066L68.75 20.1495H65.7462L62.2671 31.3344H62.2061L58.7271 20.1646H55.6381L60.6432 33.9249L60.3751 34.7618C60.1858 35.9599 59.1032 36.8145 57.8846 36.7261C57.6521 36.7261 57.201 36.7022 57.018 36.6782V38.9505C57.3903 39.001 57.7664 39.025 58.1413 39.0237V39.0086ZM48.131 31.7687C46.5554 31.7687 45.5554 31.0112 45.5554 29.865C45.5554 28.677 46.5198 27.9852 48.3636 27.8754L51.6469 27.6696V28.7376C51.5745 30.4974 50.079 31.8671 48.3077 31.7952C48.2479 31.7927 48.1895 31.7876 48.131 31.7826V31.7687ZM47.3382 34.012C49.126 34.0599 50.7981 33.1346 51.6965 31.5983H51.7575V33.8706H54.492V24.4593C54.492 21.73 52.295 19.9715 48.9125 19.9715C45.7752 19.9715 43.455 21.754 43.3699 24.2043H46.0319C46.3496 22.9583 47.5415 22.1365 48.8274 22.2754C50.6342 22.2754 51.6469 23.1124 51.6469 24.6525V25.6952L47.962 25.9136C44.5313 26.1194 42.6761 27.5144 42.6761 29.9407C42.6736 32.4011 44.5897 34.0259 47.3369 34.0259L47.3382 34.012ZM31.4918 17.4328H34.8971C37.4613 17.4328 38.9264 18.7911 38.9264 21.1809C38.9264 23.5706 37.4613 24.9403 34.8857 24.9403H31.4918V17.4328ZM28.5375 14.9585V33.8668H31.4918V27.421H35.582C38.9137 27.599 41.7587 25.0603 41.9379 21.7502C41.948 21.5621 41.9493 21.3753 41.9417 21.1872C42.0992 17.9138 39.5566 15.134 36.2618 14.9762C36.0674 14.9673 35.8743 14.9686 35.6799 14.9774L28.5375 14.9585ZM18.7318 18.4869C17.0342 18.3897 15.5819 19.4451 14.7763 19.4451C13.9707 19.4451 12.7254 18.5361 11.3824 18.5614C9.60344 18.6068 7.98208 19.5852 7.12184 21.1329C5.29082 24.2624 6.64535 28.8954 8.41537 31.4417C9.28196 32.7041 10.3214 34.0865 11.6873 34.0372C12.9808 33.9893 13.4942 33.2002 15.0571 33.2002C16.62 33.2002 17.0838 34.0372 18.451 34.012C19.8665 33.988 20.7585 32.7496 21.6277 31.4872C22.2401 30.5934 22.7166 29.615 23.0432 28.5836C21.3748 27.859 20.2935 26.2267 20.2846 24.4177C20.31 22.822 21.1512 21.35 22.5184 20.5131C21.6467 19.2835 20.2477 18.5286 18.7344 18.4755L18.7318 18.4869ZM17.6721 16.8167C16.9288 17.7471 15.7915 18.2811 14.5958 18.2597C14.5196 17.1008 14.9161 15.9608 15.695 15.0948C16.4701 14.201 17.5628 13.6405 18.7445 13.5307C18.8284 14.7224 18.4434 15.899 17.6696 16.813" fill="black"/>
</g>
<defs>
<clipPath id="clip0">
<rect width="75" height="49.6753" fill="white"/>
</clipPath>
</defs>
</svg>
