<svg width="75" height="50" viewBox="0 0 75 50" fill="none" xmlns="http://www.w3.org/2000/svg">
<path d="M0 6.25C0 2.79822 2.79822 0 6.25 0H68.75C72.2018 0 75 2.79822 75 6.25V43.75C75 47.2018 72.2018 50 68.75 50H6.25C2.79822 50 0 47.2018 0 43.75V6.25Z" fill="#FDE8CE"/>
<path d="M56.25 25.0079C56.246 35.3638 47.8469 43.755 37.4921 43.75C27.1372 43.746 18.746 35.3479 18.75 24.9921C18.754 14.6402 27.1461 6.25099 37.498 6.25C47.8539 6.24901 56.249 14.6442 56.25 25V25.0079Z" fill="#F7931A"/>
<path d="M40.9168 21.3628C40.9168 23.7589 37.1551 23.4792 35.9581 23.4792V19.2445C37.1551 19.2425 40.9118 18.8617 40.9118 21.3609L40.9168 21.3628ZM41.9026 27.95C41.9026 30.5831 37.3951 30.2836 35.9571 30.2846V25.6155C37.3951 25.6145 41.9036 25.2009 41.9036 27.9481L41.9026 27.95ZM44.8699 20.4128C44.6289 17.9007 42.46 17.0587 39.7227 16.8187V13.3346H37.6024V16.7274C37.045 16.7274 36.4748 16.7383 35.9085 16.7502V13.3356H33.7891V16.8187C33.3299 16.8276 32.8787 16.8365 32.4393 16.8365V16.8256H29.5137V19.0937C29.5137 19.0937 31.0796 19.064 31.0539 19.0937C31.6459 19.0174 32.1904 19.4319 32.2737 20.023V23.99C32.3481 23.99 32.4235 23.995 32.4978 24.0049H32.2737V29.5656C32.2489 29.9792 31.8949 30.2935 31.4823 30.2688H31.4803C31.5071 30.2926 29.9391 30.2688 29.9391 30.2688L29.5176 32.8017H32.2777C32.7914 32.8017 33.2962 32.8106 33.7921 32.8146V36.3383H35.9105V32.8513C36.4916 32.8632 37.0549 32.8681 37.6044 32.8681V36.3392H39.7217V32.8215C43.292 32.6172 45.7833 31.7187 46.0927 28.3705C46.3427 25.674 45.0742 24.471 43.051 23.985C44.3988 23.3463 45.1456 21.8786 44.8699 20.4128Z" fill="white"/>
</svg>
