<svg width="75" height="50" viewBox="0 0 75 50" fill="none" xmlns="http://www.w3.org/2000/svg">
<path d="M0 6.25C0 2.79822 2.79822 0 6.25 0H68.75C72.2018 0 75 2.79822 75 6.25V43.75C75 47.2018 72.2018 50 68.75 50H6.25C2.79822 50 0 47.2018 0 43.75V6.25Z" fill="#E4E5E7"/>
<path d="M35.8079 26.6797V33.9044H33.5V16.0627H39.621C40.3517 16.0475 41.0781 16.1762 41.7584 16.4413C42.4387 16.7064 43.0594 17.1027 43.5846 17.6073C44.1152 18.0812 44.5375 18.6624 44.8231 19.3119C45.1086 19.9614 45.2509 20.664 45.2403 21.3726C45.2555 22.085 45.1154 22.7923 44.8297 23.4459C44.5439 24.0995 44.1192 24.684 43.5846 25.1593C42.5143 26.1729 41.1931 26.6792 39.621 26.6783H35.8079V26.6797ZM35.8079 18.2593V24.4874H39.6784C40.1027 24.4999 40.525 24.4243 40.9182 24.2654C41.3114 24.1066 41.6669 23.868 41.9619 23.5649C42.2554 23.2815 42.4887 22.9426 42.6481 22.5681C42.8074 22.1936 42.8895 21.7912 42.8895 21.3847C42.8895 20.9782 42.8074 20.5758 42.6481 20.2013C42.4887 19.8268 42.2554 19.4879 41.9619 19.2045C41.6706 18.895 41.3163 18.6506 40.9226 18.4874C40.5289 18.3242 40.1048 18.2459 39.6784 18.2578H35.8079V18.2593Z" fill="#5F6368"/>
<path d="M50.5595 21.2989C52.2654 21.2989 53.6119 21.7516 54.5991 22.657C55.5863 23.5624 56.0794 24.8037 56.0785 26.3811V33.9047H53.8709V32.2106H53.7705C52.8149 33.6057 51.5438 34.3033 49.9574 34.3033C48.6033 34.3033 47.4703 33.9047 46.5586 33.1075C46.1211 32.7416 45.7713 32.2833 45.5347 31.7662C45.2981 31.249 45.1807 30.6859 45.1911 30.118C45.1911 28.8548 45.6718 27.8502 46.6332 27.1042C47.5946 26.3583 48.878 25.9844 50.4835 25.9825C51.854 25.9825 52.9826 26.2316 53.8694 26.7298V26.206C53.8721 25.8188 53.7879 25.4359 53.623 25.085C53.4581 24.7341 53.2167 24.4241 52.9162 24.1774C52.3059 23.6305 51.5105 23.3322 50.6885 23.3417C49.3993 23.3417 48.3792 23.8817 47.628 24.9618L45.5953 23.6905C46.7134 22.0961 48.3682 21.2989 50.5595 21.2989ZM47.5735 30.1678C47.572 30.4595 47.6406 30.7473 47.7738 31.0073C47.9069 31.2673 48.1007 31.492 48.339 31.6625C48.8495 32.0613 49.483 32.2725 50.1323 32.2604C51.1062 32.2588 52.0398 31.8739 52.7284 31.1899C53.4929 30.4753 53.8752 29.6368 53.8752 28.6744C53.1556 28.105 52.1521 27.8203 50.8648 27.8203C49.9273 27.8203 49.1456 28.0448 48.5196 28.4937C47.8875 28.9492 47.5735 29.503 47.5735 30.1678Z" fill="#5F6368"/>
<path d="M68.7506 21.6973L61.0442 39.2856H58.6617L61.5215 33.1314L56.4541 21.6973H58.9627L62.6253 30.4665H62.6755L66.2377 21.6973H68.7506Z" fill="#5F6368"/>
<path d="M26.4825 25.1226C26.4833 24.4241 26.4239 23.7268 26.3047 23.0385H16.5713V26.986H22.1462C22.0321 27.6165 21.7906 28.2175 21.4363 28.7528C21.0821 29.2882 20.6223 29.7467 20.0848 30.1008V32.6632H23.4119C25.36 30.8795 26.4825 28.2416 26.4825 25.1226Z" fill="#4285F4"/>
<path d="M16.5703 35.1389C19.3556 35.1389 21.7008 34.2307 23.411 32.6647L20.0838 30.1023C19.1578 30.7258 17.9651 31.0817 16.5703 31.0817C13.8782 31.0817 11.5932 29.2795 10.7761 26.8509H7.34863V29.4916C8.20768 31.1892 9.52493 32.6162 11.1533 33.6135C12.7817 34.6107 14.6572 35.1388 16.5703 35.1389Z" fill="#34A853"/>
<path d="M10.7765 26.8507C10.3445 25.5781 10.3445 24.1999 10.7765 22.9273V20.2866H7.34902C6.62636 21.7147 6.25 23.2908 6.25 24.889C6.25 26.4873 6.62636 28.0634 7.34902 29.4914L10.7765 26.8507Z" fill="#FBBC04"/>
<path d="M16.5703 18.6964C18.0422 18.6725 19.4645 19.2248 20.5296 20.2339L23.4755 17.3084C21.6075 15.5661 19.1329 14.6095 16.5703 14.6392C14.6572 14.6393 12.7817 15.1674 11.1533 16.1647C9.52494 17.1619 8.20768 18.589 7.34863 20.2865L10.7761 22.9273C11.5932 20.4987 13.8782 18.6964 16.5703 18.6964Z" fill="#EA4335"/>
</svg>
