<svg width="75" height="50" viewBox="0 0 75 50" fill="none" xmlns="http://www.w3.org/2000/svg">
<path d="M0 6.25C0 2.79822 2.79822 0 6.25 0H68.75C72.2018 0 75 2.79822 75 6.25V43.75C75 47.2018 72.2018 50 68.75 50H6.25C2.79822 50 0 47.2018 0 43.75V6.25Z" fill="#FDEACE"/>
<path d="M45.3224 10.1991L29.1865 10.2543L29.6788 39.8012L45.8147 39.7461L45.3224 10.1991Z" fill="#FF5F00"/>
<path d="M30.2477 25.0878C30.1471 19.0782 32.8382 13.7384 37.0539 10.2749C33.8713 7.77718 29.8815 6.27518 25.5566 6.2899C15.3108 6.32477 7.16223 14.7665 7.3362 25.1658C7.51017 35.5651 15.9402 43.9504 26.186 43.9155C30.5109 43.9008 34.45 42.3719 37.5487 39.8528C33.2185 36.4706 30.3482 31.0975 30.2477 25.0878Z" fill="#EB001B"/>
<path d="M67.6636 24.8349C67.8376 35.2342 59.689 43.6759 49.4432 43.7108C45.1184 43.7255 41.1285 42.2235 37.9459 39.7258C42.2131 36.2621 44.8527 30.9225 44.7522 24.9129C44.6516 18.9032 41.7822 13.5824 37.4511 10.1479C40.5498 7.62884 44.4889 6.09987 48.8138 6.08515C59.0596 6.05028 67.4905 14.4878 67.6636 24.8349Z" fill="#F79E1B"/>
</svg>
