<svg width="75" height="50" viewBox="0 0 75 50" fill="none" xmlns="http://www.w3.org/2000/svg">
<path d="M0 6.25C0 2.79822 2.79822 0 6.25 0H68.75C72.2018 0 75 2.79822 75 6.25V43.75C75 47.2018 72.2018 50 68.75 50H6.25C2.79822 50 0 47.2018 0 43.75V6.25Z" fill="#D8DDF3"/>
<path d="M50.3989 15.6753C50.3989 15.8758 50.3989 16.0764 50.1984 16.2769C48.5941 24.2983 43.3802 26.9052 36.562 26.9052H33.1529C32.3508 26.9052 31.5487 27.5069 31.5487 28.309L29.7438 39.5389L29.3428 42.7475C29.3428 43.3491 29.7438 43.7502 30.1449 43.7502H36.3615C37.1636 43.7502 37.7652 43.1486 37.7652 42.547V42.1459L38.9685 34.9266V34.5256C39.169 33.7234 39.7706 33.3224 40.3722 33.3224H41.3749C47.3909 33.3224 52.0032 30.9159 53.2064 23.8972C53.808 20.8892 53.407 18.4828 52.0032 16.8785C51.6021 16.4774 51.0005 16.0764 50.3989 15.6753Z" fill="#2199D6"/>
<path d="M48.7948 15.0737C48.5943 15.0737 48.3937 14.8732 47.9927 14.8732C47.7921 14.8732 47.3911 14.6727 47.1905 14.6727C46.1878 14.4721 45.1852 14.4721 44.1825 14.4721H34.9579C34.7574 14.4721 34.5568 14.4721 34.3563 14.6727C33.9552 14.8732 33.5542 15.2743 33.5542 15.6753L31.5488 28.1085V28.5096C31.7494 27.7074 32.3509 27.1058 33.1531 27.1058H36.5622C43.3804 27.1058 48.5943 24.2983 50.1985 16.4775C50.1985 16.2769 50.1986 16.0764 50.3991 15.8759C49.998 15.6753 49.5969 15.4748 49.1959 15.2743C48.9953 15.0737 48.7948 15.0737 48.7948 15.0737Z" fill="#252C5E"/>
<path d="M33.5536 15.6751C33.5536 15.2741 33.9546 14.873 34.3557 14.6725C34.5562 14.6725 34.7568 14.4719 34.9573 14.4719H44.1819C45.1846 14.4719 46.3878 14.4719 47.1899 14.6725C47.3904 14.6725 47.7915 14.6725 47.9921 14.873C48.1926 14.873 48.3931 15.0735 48.7942 15.0735C48.9947 15.0735 48.9947 15.0735 49.1953 15.2741C49.5963 15.4746 49.9974 15.6751 50.3985 15.8757C50.7996 12.8676 50.3985 10.8623 48.7942 9.05748C46.9894 7.05213 43.7808 6.25 39.7701 6.25H27.9386C27.1365 6.25 26.3343 6.8516 26.3343 7.65374L21.5215 38.5361C21.5215 39.1377 21.9226 39.7393 22.5242 39.7393H29.7434L31.5482 28.1083L33.5536 15.6751Z" fill="#263577"/>
</svg>
