<svg width="75" height="50" viewBox="0 0 75 50" fill="none" xmlns="http://www.w3.org/2000/svg">
<path d="M0 6.25C0 2.79822 2.79822 0 6.25 0H68.75C72.2018 0 75 2.79822 75 6.25V43.75C75 47.2018 72.2018 50 68.75 50H6.25C2.79822 50 0 47.2018 0 43.75V6.25Z" fill="#D8E3F3"/>
<path d="M64.5472 15.6793H60.6181C59.4303 15.6793 58.5165 16.0448 57.9683 17.2327L50.4756 34.3197H55.7753C55.7753 34.3197 56.689 32.0353 56.8718 31.4871C57.42 31.4871 62.6284 31.4871 63.3594 31.4871C63.5421 32.1267 63.999 34.2283 63.999 34.2283H68.7504L64.5472 15.6793ZM58.3338 27.6494C58.7906 26.5529 60.344 22.441 60.344 22.441C60.344 22.5324 60.8009 21.3445 60.9836 20.7049L61.3491 22.3497C61.3491 22.3497 62.3542 26.827 62.537 27.7407H58.3338V27.6494Z" fill="#3362AB"/>
<path d="M50.841 28.1978C50.841 32.0355 47.3688 34.594 41.9777 34.594C39.6933 34.594 37.5004 34.1371 36.3125 33.5889L37.0435 29.3857L37.6831 29.6598C39.3279 30.3908 40.4243 30.6649 42.4346 30.6649C43.8966 30.6649 45.4499 30.1167 45.4499 28.8374C45.4499 28.015 44.8103 27.4668 42.8001 26.5531C40.8812 25.6393 38.3227 24.1773 38.3227 21.5275C38.3227 17.8725 41.8863 15.4054 46.9119 15.4054C48.8308 15.4054 50.4755 15.7709 51.4806 16.2278L50.7496 20.2482L50.3841 19.8827C49.4704 19.5172 48.2825 19.1517 46.5464 19.1517C44.6276 19.2431 43.7138 20.0655 43.7138 20.7965C43.7138 21.6188 44.8103 22.2585 46.5464 23.0808C49.4704 24.4514 50.841 26.0048 50.841 28.1978Z" fill="#3362AB"/>
<path d="M6.25 15.8624L6.34137 15.4969H14.1996C15.2961 15.4969 16.1184 15.8624 16.3925 17.0503L18.1287 25.274C16.3925 20.888 12.3721 17.3244 6.25 15.8624Z" fill="#F9B50B"/>
<path d="M29.1857 15.6798L21.2362 34.2287H15.8451L11.2764 18.6951C14.5658 20.7967 17.3071 24.0862 18.3122 26.3705L18.8604 28.2894L23.7946 15.5884H29.1857V15.6798Z" fill="#3362AB"/>
<path d="M31.287 15.5884H36.3126L33.1145 34.2287H28.0889L31.287 15.5884Z" fill="#3362AB"/>
</svg>
