<svg width="170" height="57" viewBox="0 0 170 57" fill="none" xmlns="http://www.w3.org/2000/svg">
<path d="M0 10.5C0 7.23841 0 5.60761 0.532843 4.32122C1.2433 2.60602 2.60602 1.2433 4.32122 0.532843C5.60761 0 7.23841 0 10.5 0H159.5C162.762 0 164.392 0 165.679 0.532843C167.394 1.2433 168.757 2.60602 169.467 4.32122C170 5.60761 170 7.23841 170 10.5V45.9091C170 49.1707 170 50.8015 169.467 52.0879C168.757 53.8031 167.394 55.1658 165.679 55.8762C164.392 56.4091 162.762 56.4091 159.5 56.4091H10.5C7.23841 56.4091 5.60761 56.4091 4.32122 55.8762C2.60602 55.1658 1.2433 53.8031 0.532843 52.0879C0 50.8015 0 49.1707 0 45.9091V10.5Z" fill="#0C0D10"/>
<path d="M115.495 27.0777V30.3085H113.461V32.4273H115.495V39.6265C115.495 42.0847 116.612 43.0681 119.423 43.0681C119.917 43.0681 120.387 43.0095 120.799 42.9393V40.8439C120.446 40.879 120.222 40.9024 119.834 40.9024C118.576 40.9024 118.023 40.3171 118.023 38.9827V32.4273H120.799V30.3085H118.023V27.0777H115.495Z" fill="white"/>
<path d="M127.958 43.2436C131.698 43.2436 133.991 40.7503 133.991 36.6181C133.991 32.5092 131.686 30.0042 127.958 30.0042C124.219 30.0042 121.914 32.5092 121.914 36.6181C121.914 40.7503 124.207 43.2436 127.958 43.2436ZM127.958 41.0078C125.759 41.0078 124.525 39.4041 124.525 36.6181C124.525 33.8554 125.759 32.24 127.958 32.24C130.146 32.24 131.392 33.8554 131.392 36.6181C131.392 39.3924 130.146 41.0078 127.958 41.0078Z" fill="white"/>
<path d="M135.953 42.9978H138.481V35.4709C138.481 33.6798 139.833 32.4741 141.75 32.4741C142.197 32.4741 142.95 32.5561 143.161 32.6263V30.1446C142.891 30.0744 142.409 30.0393 142.032 30.0393C140.363 30.0393 138.94 30.9524 138.575 32.2049H138.387V30.25H135.953V42.9978Z" fill="white"/>
<path d="M149.439 32.1464C151.309 32.1464 152.532 33.4457 152.591 35.4475H146.123C146.264 33.4574 147.569 32.1464 149.439 32.1464ZM152.579 39.5563C152.108 40.5513 151.062 41.1014 149.533 41.1014C147.51 41.1014 146.205 39.685 146.123 37.4492V37.3087H155.166V36.4308C155.166 32.4273 153.014 30.0042 149.451 30.0042C145.841 30.0042 143.548 32.5912 143.548 36.6649C143.548 40.7386 145.794 43.2436 149.463 43.2436C152.391 43.2436 154.437 41.8389 155.013 39.5563H152.579Z" fill="white"/>
<path d="M98.915 38.2902C99.1101 41.4205 101.731 43.4225 105.631 43.4225C109.799 43.4225 112.408 41.3235 112.408 37.9748C112.408 35.3419 110.921 33.886 107.313 33.0488L105.375 32.5756C103.083 32.0418 102.157 31.326 102.157 30.0763C102.157 28.499 103.595 27.4677 105.753 27.4677C107.8 27.4677 109.214 28.4747 109.47 30.0884H112.127C111.969 27.1401 109.36 25.0654 105.789 25.0654C101.95 25.0654 99.3904 27.1401 99.3904 30.2583C99.3904 32.8304 100.841 34.3592 104.022 35.0993L106.289 35.6453C108.617 36.1912 109.641 36.992 109.641 38.3266C109.641 39.8797 108.032 41.008 105.838 41.008C103.486 41.008 101.852 39.9525 101.621 38.2902H98.915Z" fill="white"/>
<path d="M72.7247 30.0393C70.9843 30.0393 69.4791 30.9055 68.7029 32.3571H68.5148V30.25H66.0806V47.2354H68.6089V41.0663H68.8088C69.4791 42.4125 70.9255 43.2085 72.7482 43.2085C75.982 43.2085 78.0399 40.6683 78.0399 36.6181C78.0399 32.5678 75.982 30.0393 72.7247 30.0393ZM72.0073 40.9493C69.8906 40.9493 68.5618 39.287 68.5618 36.6298C68.5618 33.9608 69.8906 32.2985 72.0191 32.2985C74.1593 32.2985 75.4411 33.9257 75.4411 36.6181C75.4411 39.3221 74.1593 40.9493 72.0073 40.9493Z" fill="white"/>
<path d="M86.8868 30.0393C85.1464 30.0393 83.6412 30.9055 82.8651 32.3571H82.6769V30.25H80.2427V47.2354H82.771V41.0663H82.9709C83.6412 42.4125 85.0876 43.2085 86.9103 43.2085C90.1442 43.2085 92.2021 40.6683 92.2021 36.6181C92.2021 32.5678 90.1442 30.0393 86.8868 30.0393ZM86.1695 40.9493C84.0528 40.9493 82.7239 39.287 82.7239 36.6298C82.7239 33.9608 84.0528 32.2985 86.1812 32.2985C88.3214 32.2985 89.6032 33.9257 89.6032 36.6181C89.6032 39.3221 88.3214 40.9493 86.1695 40.9493Z" fill="white"/>
<path d="M61.5444 42.9978H64.4452L58.0951 25.49H55.1577L48.8076 42.9978H51.6109L53.232 38.3509H59.9355L61.5444 42.9978ZM56.4863 28.6688H56.6935L59.2408 36.0699H53.9267L56.4863 28.6688Z" fill="white"/>
<path d="M50.5059 12.2844V20.7303H53.5692C56.0975 20.7303 57.5615 19.1792 57.5615 16.481C57.5615 13.8237 56.0857 12.2844 53.5692 12.2844H50.5059ZM51.8229 13.4784H53.4222C55.1802 13.4784 56.2209 14.5905 56.2209 16.4986C56.2209 18.4359 55.1979 19.5363 53.4222 19.5363H51.8229V13.4784Z" fill="white"/>
<path d="M62.0454 20.8532C63.9151 20.8532 65.0617 19.6065 65.0617 17.5404C65.0617 15.486 63.9093 14.2334 62.0454 14.2334C60.1756 14.2334 59.0232 15.486 59.0232 17.5404C59.0232 19.6065 60.1698 20.8532 62.0454 20.8532ZM62.0454 19.7353C60.9459 19.7353 60.3285 18.9334 60.3285 17.5404C60.3285 16.1591 60.9459 15.3514 62.0454 15.3514C63.139 15.3514 63.7623 16.1591 63.7623 17.5404C63.7623 18.9275 63.139 19.7353 62.0454 19.7353Z" fill="white"/>
<path d="M74.8256 14.3564H73.5614L72.4208 19.2202H72.3208L71.0037 14.3564H69.7925L68.4755 19.2202H68.3814L67.2348 14.3564H65.9531L67.717 20.7303H69.0164L70.3335 16.0362H70.4334L71.7563 20.7303H73.0675L74.8256 14.3564Z" fill="white"/>
<path d="M76.2814 20.7303H77.5455V17.0019C77.5455 16.0069 78.1394 15.3865 79.0742 15.3865C80.0091 15.3865 80.456 15.8957 80.456 16.92V20.7303H81.7201V16.6039C81.7201 15.088 80.9322 14.2334 79.5035 14.2334C78.5392 14.2334 77.9042 14.6607 77.5926 15.3689H77.4985V14.3564H76.2814V20.7303Z" fill="white"/>
<path d="M83.711 20.7303H84.9751V11.8688H83.711V20.7303Z" fill="white"/>
<path d="M89.7295 20.8532C91.5992 20.8532 92.7458 19.6065 92.7458 17.5404C92.7458 15.486 91.5933 14.2334 89.7295 14.2334C87.8597 14.2334 86.7073 15.486 86.7073 17.5404C86.7073 19.6065 87.8538 20.8532 89.7295 20.8532ZM89.7295 19.7353C88.63 19.7353 88.0126 18.9334 88.0126 17.5404C88.0126 16.1591 88.63 15.3514 89.7295 15.3514C90.8231 15.3514 91.4464 16.1591 91.4464 17.5404C91.4464 18.9275 90.8231 19.7353 89.7295 19.7353Z" fill="white"/>
<path d="M96.5123 19.7762C95.8244 19.7762 95.3246 19.4426 95.3246 18.869C95.3246 18.3071 95.7244 18.0086 96.6064 17.9501L98.1704 17.8506V18.3832C98.1704 19.1734 97.4648 19.7762 96.5123 19.7762ZM96.1889 20.8356C97.0297 20.8356 97.7294 20.4727 98.1116 19.8348H98.2116V20.7303H99.4287V16.3756C99.4287 15.0295 98.5232 14.2334 96.918 14.2334C95.4657 14.2334 94.4309 14.9358 94.3015 16.0303H95.5245C95.6656 15.5796 96.1537 15.3221 96.8592 15.3221C97.7235 15.3221 98.1704 15.7025 98.1704 16.3756V16.9258L96.4359 17.0253C94.913 17.119 94.0546 17.7804 94.0546 18.9275C94.0546 20.0923 94.9542 20.8356 96.1889 20.8356Z" fill="white"/>
<path d="M103.719 20.8356C104.6 20.8356 105.347 20.4201 105.729 19.7236H105.829V20.7303H107.041V11.8688H105.776V15.3689H105.682C105.335 14.6666 104.595 14.251 103.719 14.251C102.102 14.251 101.061 15.527 101.061 17.5404C101.061 19.5597 102.09 20.8356 103.719 20.8356ZM104.077 15.3806C105.136 15.3806 105.8 16.2176 105.8 17.5462C105.8 18.8807 105.141 19.706 104.077 19.706C103.007 19.706 102.366 18.8924 102.366 17.5404C102.366 16.2001 103.013 15.3806 104.077 15.3806Z" fill="white"/>
<path d="M115.238 20.8532C117.108 20.8532 118.254 19.6065 118.254 17.5404C118.254 15.486 117.102 14.2334 115.238 14.2334C113.368 14.2334 112.216 15.486 112.216 17.5404C112.216 19.6065 113.362 20.8532 115.238 20.8532ZM115.238 19.7353C114.139 19.7353 113.521 18.9334 113.521 17.5404C113.521 16.1591 114.139 15.3514 115.238 15.3514C116.332 15.3514 116.955 16.1591 116.955 17.5404C116.955 18.9275 116.332 19.7353 115.238 19.7353Z" fill="white"/>
<path d="M119.928 20.7303H121.192V17.0019C121.192 16.0069 121.786 15.3865 122.721 15.3865C123.655 15.3865 124.102 15.8957 124.102 16.92V20.7303H125.366V16.6039C125.366 15.088 124.579 14.2334 123.15 14.2334C122.186 14.2334 121.551 14.6607 121.239 15.3689H121.145V14.3564H119.928V20.7303Z" fill="white"/>
<path d="M131.189 12.7702V14.3856H130.171V15.445H131.189V19.0446C131.189 20.2737 131.747 20.7654 133.152 20.7654C133.399 20.7654 133.635 20.7361 133.84 20.701V19.6533C133.664 19.6709 133.552 19.6826 133.358 19.6826C132.729 19.6826 132.453 19.3899 132.453 18.7227V15.445H133.84V14.3856H132.453V12.7702H131.189Z" fill="white"/>
<path d="M135.537 20.7303H136.801V17.0078C136.801 16.042 137.378 15.3923 138.412 15.3923C139.306 15.3923 139.782 15.9074 139.782 16.9258V20.7303H141.046V16.6156C141.046 15.0997 140.206 14.2393 138.842 14.2393C137.877 14.2393 137.201 14.6666 136.89 15.3806H136.79V11.8688H135.537V20.7303Z" fill="white"/>
<path d="M145.607 15.3045C146.542 15.3045 147.153 15.9542 147.183 16.9551H143.949C144.019 15.9601 144.672 15.3045 145.607 15.3045ZM147.177 19.0095C146.941 19.507 146.418 19.7821 145.654 19.7821C144.643 19.7821 143.99 19.0739 143.949 17.9559V17.8857H148.47V17.4467C148.47 15.445 147.394 14.2334 145.613 14.2334C143.808 14.2334 142.661 15.527 142.661 17.5638C142.661 19.6006 143.784 20.8532 145.619 20.8532C147.083 20.8532 148.106 20.1508 148.394 19.0095H147.177Z" fill="white"/>
<path d="M35.0898 28.6288C35.1205 26.2582 36.3994 24.0151 38.4283 22.7734C37.1484 20.9538 35.0045 19.8001 32.7741 19.7306C30.3952 19.482 28.0889 21.1476 26.8767 21.1476C25.641 21.1476 23.7745 19.7553 21.7646 19.7964C19.1449 19.8807 16.7026 21.3634 15.428 23.6434C12.6882 28.3654 14.7318 35.3052 17.3564 39.1221C18.6695 40.9912 20.2041 43.0789 22.2122 43.0049C24.1772 42.9238 24.9111 41.7576 27.283 41.7576C29.6329 41.7576 30.3215 43.0049 32.3703 42.9578C34.4788 42.9238 35.8073 41.0805 37.0743 39.1937C38.0178 37.862 38.7438 36.3901 39.2254 34.8326C36.7475 33.7893 35.0927 31.307 35.0898 28.6288Z" fill="white"/>
<path d="M31.22 17.2204C32.3696 15.8465 32.936 14.0807 32.7989 12.2978C31.0424 12.4815 29.42 13.3171 28.2548 14.6382C27.1154 15.9291 26.5224 17.6639 26.6345 19.3786C28.3916 19.3966 30.1189 18.5836 31.22 17.2204Z" fill="white"/>
<path d="M4.32122 55.8762L4.7039 54.9524L4.32122 55.8762ZM0.532843 52.0879L1.45672 51.7052L0.532843 52.0879ZM169.467 52.0879L168.543 51.7052L169.467 52.0879ZM165.679 55.8762L166.061 56.8001L165.679 55.8762ZM165.679 0.532843L166.061 -0.391036L165.679 0.532843ZM169.467 4.32122L170.391 3.93853L169.467 4.32122ZM10.5 1H159.5V-1H10.5V1ZM169 10.5V45.9091H171V10.5H169ZM159.5 55.4091H10.5V57.4091H159.5V55.4091ZM1 45.9091V10.5H-1V45.9091H1ZM10.5 55.4091C8.85552 55.4091 7.67225 55.4086 6.73798 55.3448C5.8127 55.2817 5.20494 55.1599 4.7039 54.9524L3.93853 56.8001C4.72389 57.1254 5.57473 57.2701 6.60184 57.3402C7.61997 57.4096 8.88289 57.4091 10.5 57.4091V55.4091ZM-1 45.9091C-1 47.5262 -1.00054 48.7891 -0.931075 49.8073C-0.860996 50.8344 -0.716341 51.6852 -0.391036 52.4706L1.45672 51.7052C1.24918 51.2042 1.12742 50.5964 1.06429 49.6711C1.00054 48.7368 1 47.5536 1 45.9091H-1ZM4.7039 54.9524C3.23373 54.3434 2.06569 53.1754 1.45672 51.7052L-0.391036 52.4706C0.420915 54.4308 1.97831 55.9882 3.93853 56.8001L4.7039 54.9524ZM169 45.9091C169 47.5536 168.999 48.7368 168.936 49.6711C168.873 50.5964 168.751 51.2042 168.543 51.7052L170.391 52.4706C170.716 51.6852 170.861 50.8344 170.931 49.8073C171.001 48.7891 171 47.5262 171 45.9091H169ZM159.5 57.4091C161.117 57.4091 162.38 57.4096 163.398 57.3402C164.425 57.2701 165.276 57.1254 166.061 56.8001L165.296 54.9524C164.795 55.1599 164.187 55.2817 163.262 55.3448C162.328 55.4086 161.144 55.4091 159.5 55.4091V57.4091ZM168.543 51.7052C167.934 53.1754 166.766 54.3434 165.296 54.9524L166.061 56.8001C168.022 55.9882 169.579 54.4308 170.391 52.4706L168.543 51.7052ZM159.5 1C161.144 1 162.328 1.00054 163.262 1.06429C164.187 1.12742 164.795 1.24918 165.296 1.45672L166.061 -0.391036C165.276 -0.716341 164.425 -0.860996 163.398 -0.931075C162.38 -1.00054 161.117 -1 159.5 -1V1ZM171 10.5C171 8.88289 171.001 7.61997 170.931 6.60184C170.861 5.57473 170.716 4.72389 170.391 3.93853L168.543 4.7039C168.751 5.20494 168.873 5.8127 168.936 6.73798C168.999 7.67225 169 8.85552 169 10.5H171ZM165.296 1.45672C166.766 2.06569 167.934 3.23373 168.543 4.7039L170.391 3.93853C169.579 1.97831 168.022 0.420915 166.061 -0.391036L165.296 1.45672ZM10.5 -1C8.88289 -1 7.61997 -1.00054 6.60184 -0.931075C5.57473 -0.860996 4.72389 -0.716341 3.93853 -0.391036L4.7039 1.45672C5.20494 1.24918 5.8127 1.12742 6.73798 1.06429C7.67225 1.00054 8.85552 1 10.5 1V-1ZM1 10.5C1 8.85553 1.00054 7.67225 1.06429 6.73798C1.12742 5.8127 1.24918 5.20494 1.45672 4.7039L-0.391036 3.93853C-0.716341 4.72389 -0.860996 5.57473 -0.931075 6.60184C-1.00054 7.61997 -1 8.88289 -1 10.5H1ZM3.93853 -0.391036C1.97831 0.420915 0.420915 1.97831 -0.391036 3.93853L1.45672 4.7039C2.06569 3.23373 3.23373 2.06569 4.7039 1.45672L3.93853 -0.391036Z" fill="#A6A6A6"/>
</svg>
