<svg width="170" height="51" viewBox="0 0 170 51" fill="none" xmlns="http://www.w3.org/2000/svg">
<path d="M0 5.77284C0 3.01142 2.23858 0.772842 5 0.772842H165C167.761 0.772842 170 3.01142 170 5.77284V46.0001C170 48.7615 167.761 51.0001 165 51.0001H5C2.23858 51.0001 0 48.7615 0 46.0001V5.77284Z" fill="black"/>
<path d="M85.801 28.0853C82.8392 28.0853 80.4252 30.3317 80.4252 33.4257C80.4252 36.5009 82.8392 38.7662 85.801 38.7662C88.764 38.7662 91.178 36.5009 91.178 33.4257C91.1768 30.3317 88.7628 28.0853 85.801 28.0853ZM85.801 36.6641C84.1778 36.6641 82.7788 35.3294 82.7788 33.427C82.7788 31.5046 84.1791 30.1898 85.801 30.1898C87.4242 30.1898 88.8232 31.5046 88.8232 33.427C88.8232 35.3281 87.4242 36.6641 85.801 36.6641ZM74.0722 28.0853C71.1105 28.0853 68.6965 30.3317 68.6965 33.4257C68.6965 36.5009 71.1105 38.7662 74.0722 38.7662C77.0353 38.7662 79.4493 36.5009 79.4493 33.4257C79.4493 30.3317 77.0353 28.0853 74.0722 28.0853ZM74.0722 36.6641C72.4491 36.6641 71.05 35.3294 71.05 33.427C71.05 31.5046 72.4503 30.1898 74.0722 30.1898C75.6954 30.1898 77.0945 31.5046 77.0945 33.427C77.0957 35.3281 75.6954 36.6641 74.0722 36.6641ZM60.1222 29.7252V31.9905H65.5597C65.3972 33.265 64.9716 34.1955 64.3218 34.8422C63.531 35.6307 62.2931 36.5009 60.1222 36.5009C56.7751 36.5009 54.1583 33.81 54.1583 30.4724C54.1583 27.1348 56.7751 24.4439 60.1222 24.4439C61.9279 24.4439 63.2464 25.1521 64.2198 26.0624L65.8228 24.4639C64.4628 23.1693 62.6583 22.1786 60.1222 22.1786C55.5372 22.1786 51.6826 25.9004 51.6826 30.4724C51.6826 35.0443 55.5372 38.7662 60.1222 38.7662C62.5966 38.7662 64.4641 37.9562 65.9236 36.4394C67.4246 34.9426 67.8918 32.8381 67.8918 31.1391C67.8918 30.6143 67.8515 30.1283 67.7697 29.724H60.1222V29.7252ZM117.177 31.4845C116.731 30.2916 115.371 28.0853 112.592 28.0853C109.833 28.0853 107.54 30.2501 107.54 33.4257C107.54 36.4193 109.813 38.7662 112.855 38.7662C115.309 38.7662 116.73 37.2694 117.319 36.3992L115.493 35.185C114.885 36.0752 114.052 36.6616 112.855 36.6616C111.659 36.6616 110.806 36.1154 110.258 35.0431L117.42 32.0897L117.177 31.4845ZM109.873 33.265C109.813 31.2007 111.476 30.1497 112.674 30.1497C113.607 30.1497 114.398 30.6155 114.662 31.2823L109.873 33.265ZM104.051 38.4434H106.404V22.7462H104.051V38.4434ZM100.196 29.2795H100.115C99.5874 28.6516 98.5724 28.0853 97.2955 28.0853C94.6171 28.0853 92.1628 30.4322 92.1628 33.4471C92.1628 36.4406 94.6171 38.7674 97.2955 38.7674C98.5737 38.7674 99.5874 38.2011 100.115 37.5544H100.196V38.3229C100.196 40.3659 99.1 41.4583 97.3358 41.4583C95.8952 41.4583 95.0024 40.4274 94.6372 39.5572L92.5884 40.4073C93.1765 41.8225 94.7379 43.5629 97.3358 43.5629C100.095 43.5629 102.428 41.9443 102.428 37.9989V28.4105H100.197V29.2795H100.196ZM97.4982 36.6641C95.8751 36.6641 94.5163 35.308 94.5163 33.4471C94.5163 31.5648 95.8751 30.1898 97.4982 30.1898C99.1 30.1898 100.358 31.5648 100.358 33.4471C100.358 35.308 99.1 36.6641 97.4982 36.6641ZM128.2 22.7462H122.57V38.4434H124.919V32.4965H128.199C130.803 32.4965 133.364 30.6168 133.364 27.622C133.364 24.6272 130.804 22.7462 128.2 22.7462ZM128.261 30.3117H124.919V24.9311H128.261C130.017 24.9311 131.015 26.3814 131.015 27.622C131.015 28.8375 130.017 30.3117 128.261 30.3117ZM142.782 28.0577C141.081 28.0577 139.32 28.8048 138.59 30.4611L140.676 31.3288C141.121 30.4611 141.953 30.1773 142.823 30.1773C144.038 30.1773 145.273 30.9043 145.293 32.1964V32.3584C144.868 32.1161 143.956 31.7532 142.843 31.7532C140.595 31.7532 138.306 32.985 138.306 35.2867C138.306 37.3874 140.149 38.7398 142.215 38.7398C143.794 38.7398 144.665 38.0328 145.212 37.2041H145.292V38.4158H147.561V32.3973C147.563 29.6122 145.475 28.0577 142.782 28.0577ZM142.498 36.6604C141.73 36.6604 140.656 36.2761 140.656 35.3268C140.656 34.1151 141.993 33.6505 143.148 33.6505C144.179 33.6505 144.666 33.8728 145.293 34.1754C145.111 35.6307 143.855 36.6604 142.498 36.6604ZM155.825 28.4005L153.131 35.2063H153.05L150.255 28.4005H147.724L151.916 37.9123L149.526 43.2037H151.976L158.438 28.4005H155.825ZM134.661 38.4434H137.01V22.7462H134.661V38.4434Z" fill="white"/>
<path d="M59.7119 13.6347C59.7119 14.687 59.3996 15.5245 58.7738 16.1498C58.0635 16.8932 57.1367 17.2649 55.9984 17.2649C54.9078 17.2649 53.9798 16.8882 53.2179 16.1348C52.4548 15.3801 52.0732 14.4459 52.0732 13.3308C52.0732 12.2145 52.4548 11.2803 53.2179 10.5269C53.9798 9.77224 54.9078 9.39554 55.9984 9.39554C56.5398 9.39554 57.0574 9.50101 57.5485 9.71071C58.0409 9.92167 58.435 10.2017 58.7297 10.552L58.0661 11.215C57.5661 10.6186 56.8773 10.321 55.9971 10.321C55.2012 10.321 54.5137 10.5997 53.9332 11.1573C53.3526 11.7148 53.063 12.4393 53.063 13.3296C53.063 14.2199 53.3526 14.9444 53.9332 15.5019C54.5137 16.0594 55.2012 16.3382 55.9971 16.3382C56.8408 16.3382 57.5447 16.0582 58.1076 15.4969C58.4728 15.1315 58.6844 14.6229 58.741 13.9712H55.9971V13.0659H59.6578C59.6955 13.263 59.7119 13.4526 59.7119 13.6347Z" fill="white"/>
<path d="M65.5172 10.488H62.0769V12.8764H65.1797V13.7817H62.0769V16.17H65.5172V17.0967H61.106V9.56261H65.5172V10.488Z" fill="white"/>
<path d="M69.6109 17.0967H68.64V10.488H66.5295V9.56261H71.7214V10.488H69.6109V17.0967Z" fill="white"/>
<path d="M75.4778 17.0967V9.56261H76.4486V17.0967H75.4778Z" fill="white"/>
<path d="M80.7543 17.0967H79.7834V10.488H77.6728V9.56261H82.8648V10.488H80.7543V17.0967Z" fill="white"/>
<path d="M92.693 16.1235C91.9501 16.8845 91.027 17.265 89.9226 17.265C88.8183 17.265 87.8952 16.8845 87.1535 16.1235C86.4106 15.3626 86.0403 14.4309 86.0403 13.3296C86.0403 12.2284 86.4106 11.2967 87.1535 10.5358C87.8952 9.77481 88.8183 9.39308 89.9226 9.39308C91.0207 9.39308 91.9425 9.77606 92.688 10.5408C93.4335 11.3055 93.8062 12.2347 93.8062 13.3296C93.8062 14.4309 93.4347 15.3626 92.693 16.1235ZM87.87 15.4919C88.4292 16.057 89.1129 16.3383 89.9226 16.3383C90.7323 16.3383 91.4174 16.0557 91.9752 15.4919C92.5343 14.9269 92.8152 14.2061 92.8152 13.3296C92.8152 12.4532 92.5343 11.7324 91.9752 11.1674C91.4174 10.6023 90.7323 10.321 89.9226 10.321C89.1129 10.321 88.4292 10.6036 87.87 11.1674C87.3122 11.7324 87.0314 12.4532 87.0314 13.3296C87.0314 14.2061 87.3122 14.9269 87.87 15.4919Z" fill="white"/>
<path d="M95.1687 17.0967V9.56261H96.3499L100.022 15.4229H100.063L100.022 13.9713V9.56261H100.993V17.0967H99.9791L96.1371 10.9514H96.0956L96.1371 12.403V17.0967H95.1687Z" fill="white"/>
<path d="M59.7119 13.6347C59.7119 14.687 59.3996 15.5245 58.7738 16.1498C58.0635 16.8932 57.1367 17.2649 55.9984 17.2649C54.9078 17.2649 53.9798 16.8882 53.2179 16.1348C52.4548 15.3801 52.0732 14.4459 52.0732 13.3308C52.0732 12.2145 52.4548 11.2803 53.2179 10.5269C53.9798 9.77224 54.9078 9.39554 55.9984 9.39554C56.5398 9.39554 57.0574 9.50101 57.5485 9.71071C58.0409 9.92167 58.435 10.2017 58.7297 10.552L58.0661 11.215C57.5661 10.6186 56.8773 10.321 55.9971 10.321C55.2012 10.321 54.5137 10.5997 53.9332 11.1573C53.3526 11.7148 53.063 12.4393 53.063 13.3296C53.063 14.2199 53.3526 14.9444 53.9332 15.5019C54.5137 16.0594 55.2012 16.3382 55.9971 16.3382C56.8408 16.3382 57.5447 16.0582 58.1076 15.4969C58.4728 15.1315 58.6844 14.6229 58.741 13.9712H55.9971V13.0659H59.6578C59.6955 13.263 59.7119 13.4526 59.7119 13.6347Z" stroke="white" stroke-width="0.2" stroke-miterlimit="10"/>
<path d="M65.5172 10.488H62.0769V12.8764H65.1797V13.7817H62.0769V16.17H65.5172V17.0967H61.106V9.56261H65.5172V10.488Z" stroke="white" stroke-width="0.2" stroke-miterlimit="10"/>
<path d="M69.6109 17.0967H68.64V10.488H66.5295V9.56261H71.7214V10.488H69.6109V17.0967Z" stroke="white" stroke-width="0.2" stroke-miterlimit="10"/>
<path d="M75.4778 17.0967V9.56261H76.4486V17.0967H75.4778Z" stroke="white" stroke-width="0.2" stroke-miterlimit="10"/>
<path d="M80.7543 17.0967H79.7834V10.488H77.6728V9.56261H82.8648V10.488H80.7543V17.0967Z" stroke="white" stroke-width="0.2" stroke-miterlimit="10"/>
<path d="M92.693 16.1235C91.9501 16.8845 91.027 17.265 89.9226 17.265C88.8183 17.265 87.8952 16.8845 87.1535 16.1235C86.4106 15.3626 86.0403 14.4309 86.0403 13.3296C86.0403 12.2284 86.4106 11.2967 87.1535 10.5358C87.8952 9.77481 88.8183 9.39308 89.9226 9.39308C91.0207 9.39308 91.9425 9.77606 92.688 10.5408C93.4335 11.3055 93.8062 12.2347 93.8062 13.3296C93.8062 14.4309 93.4347 15.3626 92.693 16.1235ZM87.87 15.4919C88.4292 16.057 89.1129 16.3383 89.9226 16.3383C90.7323 16.3383 91.4174 16.0557 91.9752 15.4919C92.5343 14.9269 92.8152 14.2061 92.8152 13.3296C92.8152 12.4532 92.5343 11.7324 91.9752 11.1674C91.4174 10.6023 90.7323 10.321 89.9226 10.321C89.1129 10.321 88.4292 10.6036 87.87 11.1674C87.3122 11.7324 87.0314 12.4532 87.0314 13.3296C87.0314 14.2061 87.3122 14.9269 87.87 15.4919Z" stroke="white" stroke-width="0.2" stroke-miterlimit="10"/>
<path d="M95.1687 17.0967V9.56261H96.3499L100.022 15.4229H100.063L100.022 13.9713V9.56261H100.993V17.0967H99.9791L96.1371 10.9514H96.0956L96.1371 12.403V17.0967H95.1687Z" stroke="white" stroke-width="0.2" stroke-miterlimit="10"/>
<g filter="url(#filter0_ii)">
<path d="M13.1416 10.2382C12.7752 10.6249 12.5586 11.2251 12.5586 12.0024V39.7731C12.5586 40.5516 12.7752 41.1505 13.1416 41.5373L13.2348 41.6277L28.8358 26.0711V25.8877V25.7044L13.2348 10.1465L13.1416 10.2382Z" fill="url(#paint0_linear)"/>
<path d="M34.0354 31.2583L28.8359 26.0711V25.8877V25.7044L34.0367 20.5184L34.1538 20.585L40.3153 24.0758C42.0745 25.0728 42.0745 26.7039 40.3153 27.7022L34.1538 31.193L34.0354 31.2583Z" fill="url(#paint1_linear)"/>
<g filter="url(#filter1_i)">
<path d="M34.1536 31.1917L28.8345 25.8877L13.1416 41.5373C13.7209 42.1501 14.6792 42.2254 15.7583 41.6152L34.1536 31.1917Z" fill="url(#paint2_linear)"/>
</g>
<path d="M34.1536 20.5837L15.7583 10.1616C14.6792 9.55006 13.7209 9.62665 13.1416 10.2394L28.8357 25.889L34.1536 20.5837Z" fill="url(#paint3_linear)"/>
</g>
<path d="M5 1.77284H165V-0.227158H5V1.77284ZM169 5.77284V46.0001H171V5.77284H169ZM165 50.0001H5V52.0001H165V50.0001ZM1 46.0001V5.77284H-1V46.0001H1ZM5 50.0001C2.79086 50.0001 1 48.2093 1 46.0001H-1C-1 49.3138 1.6863 52.0001 5 52.0001V50.0001ZM169 46.0001C169 48.2093 167.209 50.0001 165 50.0001V52.0001C168.314 52.0001 171 49.3138 171 46.0001H169ZM165 1.77284C167.209 1.77284 169 3.5637 169 5.77284H171C171 2.45913 168.314 -0.227158 165 -0.227158V1.77284ZM5 -0.227158C1.68629 -0.227158 -1 2.45913 -1 5.77284H1C1 3.5637 2.79086 1.77284 5 1.77284V-0.227158Z" fill="#A6A6A6"/>
<defs>
<filter id="filter0_ii" x="12.5586" y="9.73957" width="29.0761" height="32.2971" filterUnits="userSpaceOnUse" color-interpolation-filters="sRGB">
<feFlood flood-opacity="0" result="BackgroundImageFix"/>
<feBlend mode="normal" in="SourceGraphic" in2="BackgroundImageFix" result="shape"/>
<feColorMatrix in="SourceAlpha" type="matrix" values="0 0 0 0 0 0 0 0 0 0 0 0 0 0 0 0 0 0 127 0" result="hardAlpha"/>
<feOffset dy="-0.15"/>
<feComposite in2="hardAlpha" operator="arithmetic" k2="-1" k3="1"/>
<feColorMatrix type="matrix" values="0 0 0 0 0 0 0 0 0 0 0 0 0 0 0 0 0 0 0.12 0"/>
<feBlend mode="normal" in2="shape" result="effect1_innerShadow"/>
<feColorMatrix in="SourceAlpha" type="matrix" values="0 0 0 0 0 0 0 0 0 0 0 0 0 0 0 0 0 0 127 0" result="hardAlpha"/>
<feOffset dy="0.15"/>
<feComposite in2="hardAlpha" operator="arithmetic" k2="-1" k3="1"/>
<feColorMatrix type="matrix" values="0 0 0 0 1 0 0 0 0 1 0 0 0 0 1 0 0 0 0.25 0"/>
<feBlend mode="normal" in2="effect1_innerShadow" result="effect2_innerShadow"/>
</filter>
<filter id="filter1_i" x="13.1416" y="25.8877" width="21.012" height="16.1489" filterUnits="userSpaceOnUse" color-interpolation-filters="sRGB">
<feFlood flood-opacity="0" result="BackgroundImageFix"/>
<feBlend mode="normal" in="SourceGraphic" in2="BackgroundImageFix" result="shape"/>
<feColorMatrix in="SourceAlpha" type="matrix" values="0 0 0 0 0 0 0 0 0 0 0 0 0 0 0 0 0 0 127 0" result="hardAlpha"/>
<feOffset dy="-0.15"/>
<feComposite in2="hardAlpha" operator="arithmetic" k2="-1" k3="1"/>
<feColorMatrix type="matrix" values="0 0 0 0 0 0 0 0 0 0 0 0 0 0 0 0 0 0 0.08 0"/>
<feBlend mode="normal" in2="shape" result="effect1_innerShadow"/>
</filter>
<linearGradient id="paint0_linear" x1="27.4529" y1="11.7086" x2="6.3801" y2="32.8414" gradientUnits="userSpaceOnUse">
<stop stop-color="#00A0FF"/>
<stop offset="0.0066" stop-color="#00A1FF"/>
<stop offset="0.2601" stop-color="#00BEFF"/>
<stop offset="0.5122" stop-color="#00D2FF"/>
<stop offset="0.7604" stop-color="#00DFFF"/>
<stop offset="1" stop-color="#00E3FF"/>
</linearGradient>
<linearGradient id="paint1_linear" x1="42.6053" y1="25.8877" x2="12.1364" y2="25.8877" gradientUnits="userSpaceOnUse">
<stop stop-color="#FFE000"/>
<stop offset="0.4087" stop-color="#FFBD00"/>
<stop offset="0.7754" stop-color="#FFA500"/>
<stop offset="1" stop-color="#FF9C00"/>
</linearGradient>
<linearGradient id="paint2_linear" x1="31.265" y1="28.7681" x2="2.68767" y2="57.4269" gradientUnits="userSpaceOnUse">
<stop stop-color="#FF3A44"/>
<stop offset="1" stop-color="#C31162"/>
</linearGradient>
<linearGradient id="paint3_linear" x1="9.18929" y1="0.994848" x2="21.9499" y2="13.7918" gradientUnits="userSpaceOnUse">
<stop stop-color="#32A071"/>
<stop offset="0.0685" stop-color="#2DA771"/>
<stop offset="0.4762" stop-color="#15CF74"/>
<stop offset="0.8009" stop-color="#06E775"/>
<stop offset="1" stop-color="#00F076"/>
</linearGradient>
</defs>
</svg>
